/* XPM */
static char * presage_xpm[] = {
"32 32 115 2",
"  	c None",
". 	c #58729A",
"+ 	c #58729B",
"@ 	c #59729B",
"# 	c #59739A",
"$ 	c #577199",
"% 	c #59739B",
"& 	c #58739A",
"* 	c #E3E8EE",
"= 	c #CAD3DF",
"- 	c #D8DEE8",
"; 	c #B8C4D5",
"> 	c #5B759C",
", 	c #ADB9CD",
"' 	c #61799F",
") 	c #60799F",
"! 	c #90A1BC",
"~ 	c #B3BFD1",
"{ 	c #A9B6CB",
"] 	c #8A9CB8",
"^ 	c #58739B",
"/ 	c #C4CDDB",
"( 	c #8E9FBA",
"_ 	c #8D9FBA",
": 	c #B0BDCF",
"< 	c #B4C0D2",
"[ 	c #577299",
"} 	c #FAFAFB",
"| 	c #F5F6F9",
"1 	c #EBEFF3",
"2 	c #D2D9E3",
"3 	c #D1D9E3",
"4 	c #D3DAE4",
"5 	c #A3B2C7",
"6 	c #8E9FB9",
"7 	c #778CAD",
"8 	c #6B82A5",
"9 	c #7288AA",
"0 	c #7E92B1",
"a 	c #7E93B1",
"b 	c #A2B0C6",
"c 	c #F7F9FA",
"d 	c #F3F4F7",
"e 	c #DDE3EA",
"f 	c #D3D9E4",
"g 	c #D4DBE5",
"h 	c #A0AFC5",
"i 	c #5A749B",
"j 	c #5C759C",
"k 	c #BAC4D5",
"l 	c #DEE3EA",
"m 	c #D8DEE7",
"n 	c #DCE2EA",
"o 	c #E1E6EC",
"p 	c #F0F3F6",
"q 	c #BDC7D7",
"r 	c #899BB7",
"s 	c #889AB7",
"t 	c #B1BDD0",
"u 	c #B0BCCF",
"v 	c #B8C3D4",
"w 	c #96A6BF",
"x 	c #6F85A8",
"y 	c #7187A9",
"z 	c #B9C4D5",
"A 	c #A3B1C7",
"B 	c #AFBBCE",
"C 	c #8397B4",
"D 	c #5A749C",
"E 	c #AFBBCF",
"F 	c #A2B1C7",
"G 	c #A8B5CA",
"H 	c #627AA0",
"I 	c #617AA0",
"J 	c #97A7C0",
"K 	c #B9C4D4",
"L 	c #9AAAC2",
"M 	c #768BAC",
"N 	c #778DAD",
"O 	c #BCC6D7",
"P 	c #E3E7ED",
"Q 	c #CED5E1",
"R 	c #CBD2DF",
"S 	c #C9D1DE",
"T 	c #D7DDE7",
"U 	c #B5C0D2",
"V 	c #DAE0E9",
"W 	c #D7DDE6",
"X 	c #E5EAF0",
"Y 	c #F3F4F8",
"Z 	c #C0CAD8",
"` 	c #7D92B0",
" .	c #6B82A6",
"..	c #7389AA",
"+.	c #889AB5",
"@.	c #FFFFFF",
"#.	c #FDFFFF",
"$.	c #D6DDE6",
"%.	c #AEBBCE",
"&.	c #889BB7",
"*.	c #D9DEE7",
"=.	c #BBC5D5",
"-.	c #BAC5D5",
";.	c #CED6E1",
">.	c #A4B2C8",
",.	c #92A3BD",
"'.	c #59729A",
").	c #C8D1DE",
"!.	c #9DACC3",
"~.	c #BEC8D7",
"{.	c #FDFDFD",
"].	c #FBFBFD",
"^.	c #FBFDFD",
"/.	c #A6B5C9",
"(.	c #58719A",
"                                                                ",
"                                                                ",
"                                                                ",
"                                                                ",
"                                                                ",
"                              . + @ # $                         ",
"                          . . % % % % % & &                     ",
"  * = = = = = = = = = - ; > % % % % % % % % .                   ",
"  , ' ) ) ) ) ) ) ) ) ! ~ > % % % % % % % % % @                 ",
"  { % % % % % % % % % ] ~ > % % % % % % % % % % ^               ",
"  { % % % % % % % % % ] ~ > % % % % % % % % % % @               ",
"  / ( _ _ _ _ _ _ _ _ : < > % % % % % % % % % % % [             ",
"  } | | | | | | 1 2 3 4 5 > % % % % % % % % % % % .             ",
"                6 7 7 7 8 % % % % % % % 9 0 0 0 0 a b           ",
"  c d d d d d d e f f g h i % % % % % j k l m m m m n o o o o p ",
"  q r s s s s s s s s t u i % % % % % j v w x x x x x x x x y z ",
"  A % % % % % % % % % ! B i % % % % % j v C % % % % % % % % D E ",
"  F % % % % % % % % % ! B i % % % % % j v C % % % % % % % % D E ",
"  G H I I I I I I I I J B i % % % % % j K L M M M M M M M M N O ",
"  P Q Q Q Q Q Q R S S T u i % % % % % j U V W W W W l X X X X Y ",
"                Z L L L ` % % % % % % %  ...........+.          ",
"  @.#.#.#.#.#.#.$.u %.%.&.% % % % % % % % % % % % %             ",
"  *.=.=.=.=.=.=.-.v v ;.t i % % % % % % % % % % % .             ",
"  >.j > > > > > > > > ,.B i % % % % % % % % % % '.              ",
"  F % % % % % % % % % ! B i % % % % % % % % % % .               ",
"  A % % % % % % % % % ! B i % % % % % % % % % .                 ",
"  ).!.!.!.!.!.!.!.!.!.~.: i % % % % % % % % .                   ",
"  {.].].].].].].].].].^./.@ . % % % % % '.&                     ",
"                            . ^ . . + . (.                      ",
"                                                                ",
"                                                                ",
"                                                                "};
