/* XPM */
static char * gprompter_xpm[] = {
"32 32 118 2",
"  	c None",
". 	c #59739B",
"+ 	c #59749B",
"@ 	c #59739C",
"# 	c #F7F7FA",
"$ 	c #EBEEF3",
"% 	c #F0F2F6",
"& 	c #7C91B0",
"* 	c #6F86A8",
"= 	c #CED5E2",
"- 	c #8094B3",
"; 	c #59739A",
"> 	c #E7EBF0",
", 	c #BBC5D6",
"' 	c #59749C",
") 	c #FBFCFC",
"! 	c #EAEEF2",
"~ 	c #DEE3EB",
"{ 	c #F9FAFB",
"] 	c #788DAE",
"^ 	c #A1B0C6",
"/ 	c #90A2BC",
"( 	c #637BA1",
"_ 	c #7A8EAF",
": 	c #91A3BD",
"< 	c #FFFFFF",
"[ 	c #B5C0D3",
"} 	c #B2BED1",
"| 	c #B2BED0",
"1 	c #768CAD",
"2 	c #C6CFDD",
"3 	c #CBD3E0",
"4 	c #A6B4CA",
"5 	c #A8B5CB",
"6 	c #A9B6CB",
"7 	c #CDD5E0",
"8 	c #F2F4F8",
"9 	c #EDF0F4",
"0 	c #C4CEDC",
"a 	c #EDEEF3",
"b 	c #BDC8D7",
"c 	c #BDC7D7",
"d 	c #DCE1EA",
"e 	c #C3CCDB",
"f 	c #E2E6ED",
"g 	c #F4F5F9",
"h 	c #899CB7",
"i 	c #7A8FAF",
"j 	c #5F789F",
"k 	c #4D6285",
"l 	c #475577",
"m 	c #455475",
"n 	c #415370",
"o 	c #3F516D",
"p 	c #505D7A",
"q 	c #556279",
"r 	c #7B8FB0",
"s 	c #EBEEF4",
"t 	c #E8ECF1",
"u 	c #748AAB",
"v 	c #515E84",
"w 	c #7D7ABB",
"x 	c #A09AEC",
"y 	c #9F99EB",
"z 	c #8481C5",
"A 	c #445575",
"B 	c #5E6190",
"C 	c #9993E2",
"D 	c #68659B",
"E 	c #958FDB",
"F 	c #908FD8",
"G 	c #3D4F6B",
"H 	c #5E6694",
"I 	c #928CD7",
"J 	c #626696",
"K 	c #53698F",
"L 	c #5F5D8E",
"M 	c #425372",
"N 	c #FDFDFE",
"O 	c #8598B6",
"P 	c #E7EBF1",
"Q 	c #5C759F",
"R 	c #5F5D8D",
"S 	c #9E98E9",
"T 	c #9E99EA",
"U 	c #5A5E8B",
"V 	c #908BD4",
"W 	c #7E7DBD",
"X 	c #465A79",
"Y 	c #F7F9FA",
"Z 	c #EEF0F5",
"` 	c #EEF1F6",
" .	c #7288AA",
"..	c #5E749F",
"+.	c #5C5D8B",
"@.	c #706DA6",
"#.	c #716DA8",
"$.	c #9C96E6",
"%.	c #575F8A",
"&.	c #52698E",
"*.	c #59729B",
"=.	c #5E749E",
"-.	c #6A669D",
";.	c #9E98EA",
">.	c #53507B",
",.	c #524F79",
"'.	c #5E5A8B",
").	c #666296",
"!.	c #9B96E6",
"~.	c #514D76",
"{.	c #9B95E5",
"].	c #413E61",
"^.	c #514E77",
"/.	c #676398",
"(.	c #6A669C",
"_.	c #6C679E",
":.	c #625E8F",
"<.	c #433F60",
"                                                                ",
"                                                                ",
"                                                                ",
"                                                                ",
"                                                                ",
"                                                                ",
"                            . + . @ +                           ",
"  # $ $ $ $ $ $ $ $ $ % & . . . . . . . .                       ",
"  % * * * * * * * * * = - . . . . . . . . . ;                   ",
"  > . . . . . . . . . , - . . . . . . . . . . '                 ",
"  > . . . . . . . . . , - . . . . . . . . . . .                 ",
"  ) % % % % % % ! ~ ~ { ] . . . . . . . . . . . +               ",
"                ^ / / / ( . . . . . . _ / / / / :               ",
"  < [ [ [ [ [ [ } | | < 1 . . . . . . 2 3 4 4 4 4 5 6 6 6 7 8   ",
"  9 . . . . . . . . . 0 1 . . . . . . , - . . . . . . . . - a   ",
"  9 . . . . . . . . . 0 1 . . . . . . , - . . . . . . . . - a   ",
"  < 0 0 0 0 0 0 b c c < 1 . . . . . . 2 d c c c c e 0 0 0 f g   ",
"                h i i i j . k l m n o p q i i i r               ",
"  < s s s s s s t ~ ~ < u v w x x x y z A . . . @               ",
"  9 . . . . . . . . . 0 1 B x x C D E F G . . .                 ",
"  9 . . . . . . . . . 0 1 H I x J K L x M . .                   ",
"  N O O O O O O O O O P 1 Q R S T U V W X .                     ",
"  Y Z Z Z Z Z Z Z Z Z `  .. ..+.@.#.$.%.&.                      ",
"                              @ *.=.-.;.                        ",
"                              >.,.'.C x                         ",
"                            ).x x x x !.                        ",
"                          ~.{.x x x $.].                        ",
"                          ^./.(._.:.<.                          ",
"                                                                ",
"                                                                ",
"                                                                ",
"                                                                "};
