/* XPM */
static char * pyprompter_xpm[] = {
"32 32 120 2",
"  	c None",
". 	c #59739B",
"+ 	c #59749B",
"@ 	c #59739C",
"# 	c #F7F7FA",
"$ 	c #EBEEF3",
"% 	c #F0F2F6",
"& 	c #7C91B0",
"* 	c #6F86A8",
"= 	c #CED5E2",
"- 	c #8094B3",
"; 	c #59739A",
"> 	c #E7EBF0",
", 	c #BBC5D6",
"' 	c #59749C",
") 	c #FBFCFC",
"! 	c #EAEEF2",
"~ 	c #DEE3EB",
"{ 	c #F9FAFB",
"] 	c #788DAE",
"^ 	c #A1B0C6",
"/ 	c #90A2BC",
"( 	c #637BA1",
"_ 	c #7A8EAF",
": 	c #91A3BD",
"< 	c #FFFFFF",
"[ 	c #B5C0D3",
"} 	c #B2BED1",
"| 	c #B2BED0",
"1 	c #768CAD",
"2 	c #C6CFDD",
"3 	c #CBD3E0",
"4 	c #A6B4CA",
"5 	c #A8B5CB",
"6 	c #A9B6CB",
"7 	c #CDD5E0",
"8 	c #F2F4F8",
"9 	c #EDF0F4",
"0 	c #C4CEDC",
"a 	c #EDEEF3",
"b 	c #BDC8D7",
"c 	c #BDC7D7",
"d 	c #DCE1EA",
"e 	c #C3CCDB",
"f 	c #E2E6ED",
"g 	c #F4F5F9",
"h 	c #899CB7",
"i 	c #7A8FAF",
"j 	c #5F789F",
"k 	c #6D83A7",
"l 	c #7B8FB0",
"m 	c #EBEEF4",
"n 	c #E8ECF1",
"o 	c #748AAB",
"p 	c #5A6390",
"q 	c #5C5E8C",
"r 	c #47496D",
"s 	c #52567E",
"t 	c #566E95",
"u 	c #6273A2",
"v 	c #516289",
"w 	c #5E6A97",
"x 	c #555881",
"y 	c #475677",
"z 	c #646799",
"A 	c #A09AEC",
"B 	c #9793E1",
"C 	c #9E98E9",
"D 	c #48587A",
"E 	c #565580",
"F 	c #50567D",
"G 	c #66689B",
"H 	c #485779",
"I 	c #67699D",
"J 	c #3A4560",
"K 	c #7F7ABB",
"L 	c #535E86",
"M 	c #7678B4",
"N 	c #5E5D8D",
"O 	c #9292DD",
"P 	c #415471",
"Q 	c #FDFDFE",
"R 	c #8598B6",
"S 	c #E7EBF1",
"T 	c #6A6BA0",
"U 	c #646294",
"V 	c #8D87CF",
"W 	c #5B638F",
"X 	c #59628E",
"Y 	c #9D98E8",
"Z 	c #656195",
"` 	c #646B9D",
" .	c #4B6082",
"..	c #F7F9FA",
"+.	c #EEF0F5",
"@.	c #EEF1F6",
"#.	c #7288AA",
"$.	c #6E6DA5",
"%.	c #5E6593",
"&.	c #596690",
"*.	c #938DD9",
"=.	c #46476B",
"-.	c #736FAA",
";.	c #A09AEB",
">.	c #8A87CD",
",.	c #5A5E89",
"'.	c #6477A6",
").	c #7A75B4",
"!.	c #7470AC",
"~.	c #0F0D16",
"{.	c #4D4A73",
"].	c #7773B0",
"^.	c #938ED9",
"/.	c #7975B3",
"(.	c #7571AD",
"_.	c #625F92",
":.	c #716DA7",
"<.	c #7974B2",
"[.	c #4B4970",
"}.	c #847EC2",
"                                                                ",
"                                                                ",
"                                                                ",
"                                                                ",
"                                                                ",
"                                                                ",
"                            . + . @ +                           ",
"  # $ $ $ $ $ $ $ $ $ % & . . . . . . . .                       ",
"  % * * * * * * * * * = - . . . . . . . . . ;                   ",
"  > . . . . . . . . . , - . . . . . . . . . . '                 ",
"  > . . . . . . . . . , - . . . . . . . . . . .                 ",
"  ) % % % % % % ! ~ ~ { ] . . . . . . . . . . . +               ",
"                ^ / / / ( . . . . . . _ / / / / :               ",
"  < [ [ [ [ [ [ } | | < 1 . . . . . . 2 3 4 4 4 4 5 6 6 6 7 8   ",
"  9 . . . . . . . . . 0 1 . . . . . . , - . . . . . . . . - a   ",
"  9 . . . . . . . . . 0 1 . . . . . . , - . . . . . . . . - a   ",
"  < 0 0 0 0 0 0 b c c < 1 . . . . . . 2 d c c c c e 0 0 0 f g   ",
"                h i i i j . . . . . . k i i i i l               ",
"  < m m m m m m n ~ ~ < o p q r s t u v w x y . @               ",
"  9 . . . . . . . . . 0 1 z A B C D E F G A H .                 ",
"  9 . . . . . . . . . 0 1 I A J K L z M N O P                   ",
"  Q R R R R R R R R R S 1 T A U V W X Y Z `  .                  ",
"  ..+.+.+.+.+.+.+.+.+.@.#.$.A A A %.&.*.A =.                    ",
"                          -.;.>.A ,.'.).A                       ",
"                          !.A ~.{.    ].^.                      ",
"                          /.C         (._.                      ",
"                          :.<.        ].[.                      ",
"                                      }.                        ",
"                                                                ",
"                                                                ",
"                                                                ",
"                                                                "};
